<svg xmlns="http://www.w3.org/2000/svg" viewBox="0 0 100 100" fill="none">
  <defs>
    <linearGradient id="spendlyIconGrad" x1="0%" y1="0%" x2="100%" y2="100%">
      <stop offset="0%" stop-color="#6366f1" />
      <stop offset="50%" stop-color="#4f46e5" />
      <stop offset="100%" stop-color="#4338ca" />
    </linearGradient>
    <linearGradient id="sparkleGrad" x1="0%" y1="0%" x2="100%" y2="100%">
      <stop offset="0%" stop-color="#ffffff" />
      <stop offset="100%" stop-color="#e0e7ff" />
    </linearGradient>
    <filter id="shadow" x="-10%" y="-10%" width="120%" height="120%">
      <feDropShadow dx="0" dy="4" stdDeviation="4" flood-color="#4338ca" flood-opacity="0.35" />
    </filter>
  </defs>
  
  <!-- Icon Badge (Squircle) -->
  <rect x="5" y="5" width="90" height="90" rx="26" fill="url(#spendlyIconGrad)" filter="url(#shadow)" />
  
  <!-- Inner Highlight Ring -->
  <rect x="6" y="6" width="88" height="88" rx="25" fill="none" stroke="#ffffff" stroke-opacity="0.25" stroke-width="2" />
  
  <!-- Central Sparkle Emblem -->
  <path d="M50 20 C50 36.5 36.5 50 20 50 C36.5 50 50 63.5 50 80 C50 63.5 63.5 50 80 50 C63.5 50 50 36.5 50 20 Z" fill="url(#sparkleGrad)" />
  
  <!-- Secondary Accent Diamond -->
  <path d="M68 24 C68 29.5 63.5 34 58 34 C63.5 34 68 38.5 68 44 C68 38.5 72.5 34 78 34 C72.5 34 68 29.5 68 24 Z" fill="#ffffff" opacity="0.85" />
</svg>
